<svg width="589" height="199" viewBox="0 0 589 199" fill="none" xmlns="http://www.w3.org/2000/svg">
<path d="M219.231 55.1602C265.991 55.1602 278.312 73.9201 278.312 106.12V196H251.991L248.911 181.72C237.991 191.52 222.031 198.8 202.711 198.8C171.911 198.8 151.751 185.36 151.751 156.8C151.751 126.56 171.912 114.24 210.552 114.24H247.231V106.4C247.231 87.3604 237.151 80.9199 215.031 80.9199C200.751 80.92 177.511 85.1197 160.711 92.6797V64.96C177.791 58.52 203.831 55.1602 219.231 55.1602ZM434.543 196H408.223L405.143 181.72C392.543 191.52 375.183 198.8 356.423 198.8C315.823 198.8 295.383 173.32 295.383 127.68C295.383 80.64 317.503 55.1602 362.022 55.1602C377.422 55.1602 392.263 59.6402 403.463 65.2402V0H434.543V196ZM522.393 55.1602C567.193 55.1602 588.473 78.96 588.473 122.92C588.473 127.12 588.193 131.6 587.913 136.36H485.433C487.953 163.24 501.673 173.04 531.633 173.04C552.353 173.04 568.313 168.84 584.272 160.16V188.16C568.033 195.16 551.233 198.8 527.433 198.8C480.113 198.8 453.232 175 453.232 127.12C453.232 79.2401 478.153 55.1602 522.393 55.1602ZM87.0801 98.5596L139.44 7.83984H173.88L103.32 129.64V196H71.4004V130.2L0 7.83984H35.2803L87.0801 98.5596ZM212.512 136.64C191.792 136.64 182.552 141.68 182.552 155.96C182.552 168.28 192.632 174.16 210.552 174.16C223.992 174.16 237.432 169.96 247.231 162.4V136.64H212.512ZM367.062 82.04C341.303 82.0401 327.583 94.0805 327.583 127.4C327.583 158.76 340.743 171.64 363.143 171.64C377.983 171.64 390.303 166.6 403.463 158.48V91C392.263 85.4 380.503 82.04 367.062 82.04ZM522.112 80.0801C500.833 80.0802 488.513 89.3201 485.433 113.96H557.393C557.113 92.12 547.032 80.0801 522.112 80.0801Z" fill="#BEA184"/>
</svg>
